<svg fill="none" viewBox="0 0 361 240" xmlns="http://www.w3.org/2000/svg" class="w-[360px] h-[240px]"><path d="M88.658 101.35l29.539 21.343 28.515-39.479-29.538-21.344-28.516 39.479z" fill="#fff"/><path d="M118.19 123.89c-.25 0-.488-.084-.703-.227l-29.538-21.341a1.172 1.172 0 01-.477-.775c-.047-.31.024-.632.215-.882L116.2 61.177a1.199 1.199 0 011.669-.274l29.538 21.34c.537.382.656 1.133.274 1.67L119.157 123.4a1.174 1.174 0 01-.775.477c-.071.012-.131.012-.191.012zm-27.881-22.796l27.607 19.946 27.119-37.556-27.607-19.946-27.119 37.556z" fill="#080717"/><path d="M98.486 86.641l16.855-23.344 27.775 20.066-9.989 20.101c-11.337-2.754-29.36-5.556-34.641-16.822z" fill="#080717"/><path d="M171.86 22.426l-6.664-2.861c-18.905-8.096-40.541-.763-50.876 16.37-3.445-1.467-7.462-1.515-11.098.226-6.699 3.22-9.536 11.255-6.317 17.955 1.68 3.517 4.696 5.95 8.141 7.022-2.038 18.04 7.796 36.03 25.331 43.542l5.293 2.265c14.793 6.343 31.922-.525 38.264-15.32l13.255-30.952c6.318-14.772-.536-31.905-15.329-38.247z" fill="#fff"/><path d="M147.12 110.52c-4.053 0-8.106-.823-11.932-2.468l-5.293-2.266c-17.177-7.356-27.822-25.287-26.141-43.827-3.469-1.347-6.33-3.97-7.94-7.32a14.547 14.547 0 01-.607-11.196 14.543 14.543 0 017.486-8.345 14.634 14.634 0 0111.122-.62c10.919-17.18 33.019-24.06 51.829-16l6.664 2.861c15.377 6.581 22.529 24.453 15.937 39.833L174.99 92.123c-3.195 7.452-9.095 13.21-16.617 16.227a30.42 30.42 0 01-11.253 2.17zm-38.121-74.468c-1.812 0-3.612.405-5.281 1.192a12.185 12.185 0 00-6.27 6.987 12.18 12.18 0 00.512 9.371c1.479 3.1 4.125 5.365 7.427 6.402.548.167.894.704.834 1.276-2.014 17.836 8.106 35.243 24.616 42.313l5.293 2.265c6.866 2.945 14.459 3.028 21.385.25 6.925-2.778 12.361-8.083 15.305-14.95l13.256-30.95c2.944-6.868 3.028-14.463.25-21.39-2.777-6.927-8.082-12.364-14.948-15.308l-6.663-2.861c-18.036-7.726-39.266-.895-49.387 15.893a1.183 1.183 0 01-1.49.477 12.832 12.832 0 00-4.839-.966z" fill="#080717"/><path d="M171.86 22.426l-17.821-7.63c-14.507-6.212-31.315.512-37.525 15.022l-2.563 5.985a13.46 13.46 0 017.223 6.7c2.873 5.997.906 13.055-4.351 16.787a6.57 6.57 0 008.667-2.98l4.184-8.287 2.729-.524a17.66 17.66 0 0010.633-6.522l3.827-4.924c42.913 7.428 40.314 24.656 40.314 24.656 6.33-14.808-.524-31.94-15.317-38.283z" fill="#080717"/><path d="M176.53 96.644c-.74 0-1.491-.06-2.23-.179a14.197 14.197 0 01-9.357-5.699 14.251 14.251 0 01-2.587-10.647 14.201 14.201 0 015.698-9.359c3.088-2.253 6.866-3.171 10.645-2.587s7.105 2.61 9.357 5.699a14.251 14.251 0 012.587 10.647 14.198 14.198 0 01-5.698 9.36 14.226 14.226 0 01-8.415 2.765zm-7.081-23.964a11.839 11.839 0 00-4.744 7.797 11.83 11.83 0 002.157 8.87c3.886 5.318 11.36 6.475 16.677 2.6a11.846 11.846 0 004.744-7.798 11.825 11.825 0 00-2.158-8.87 11.839 11.839 0 00-7.796-4.745c-3.158-.5-6.305.274-8.88 2.146zM149.97 81.502a14.312 14.312 0 01-11.575-5.866 14.25 14.25 0 01-2.586-10.647 14.197 14.197 0 015.698-9.359c6.377-4.662 15.341-3.267 20.002 3.112 4.661 6.378 3.266 15.356-3.111 20.006a14.216 14.216 0 01-8.428 2.754zm-.036-26.253c-2.443 0-4.911.751-7.021 2.29-2.575 1.883-4.255 4.649-4.744 7.796s.274 6.307 2.157 8.883c3.886 5.317 11.361 6.474 16.677 2.599 5.316-3.887 6.473-11.362 2.599-16.68a12.005 12.005 0 00-9.668-4.888z" fill="#9E9E9E"/><path d="M140.34 59.446c-.178 0-.369-.048-.548-.131l-17.356-8.906a1.186 1.186 0 01-.513-1.61 1.186 1.186 0 011.61-.513l17.356 8.907c.584.298.81 1.013.512 1.61a1.207 1.207 0 01-1.061.643zM167.21 74.635a1.36 1.36 0 01-.477-.095l-4.351-1.884a1.185 1.185 0 01-.62-1.562 1.185 1.185 0 011.562-.62l4.351 1.884c.608.262.882.965.62 1.562a1.17 1.17 0 01-1.085.715z" fill="#9E9E9E"/><path d="M147.42 63.571c-1.013 1.943-.834 4.042.405 4.686 1.24.643 3.064-.406 4.065-2.35 1.013-1.943.835-4.04-.405-4.685-1.228-.643-3.052.406-4.065 2.349zM168.83 76.054c-1.013 1.943-.834 4.042.405 4.686 1.24.643 3.064-.406 4.065-2.35 1.013-1.943.835-4.041-.405-4.685s-3.052.406-4.065 2.349zM145.92 86.259c.06 0 .12 0 .179.012 2.551.381 7.427 2.623 7.629 8.358a1.179 1.179 0 01-1.144 1.228 1.172 1.172 0 01-1.228-1.145c-.179-5.21-5.376-6.057-5.603-6.08a1.19 1.19 0 01-1.001-1.36 1.18 1.18 0 011.168-1.013zM164.08 55.487c-.31 0-.632-.12-.859-.37-.047-.06-5.399-5.555-11.586-4.208-.644.13-1.276-.274-1.419-.918s.275-1.276.918-1.42c7.498-1.62 13.566 4.639 13.816 4.901a1.198 1.198 0 01-.036 1.681 1.2 1.2 0 01-.834.334zM187.47 70.987c-.393 0-.763-.19-1.001-.537-3.528-5.377-9.679-5.293-9.93-5.293-.667.036-1.204-.5-1.215-1.157a1.204 1.204 0 011.156-1.228c.31-.012 7.712-.143 11.992 6.367a1.192 1.192 0 01-.346 1.645 1.12 1.12 0 01-.656.203zM113.52 57.478a1.198 1.198 0 01-1.014-1.836c.036-.048 3.183-5.067 2.11-9.335-.453-1.824-1.597-3.231-3.48-4.292a1.19 1.19 0 011.168-2.075c2.455 1.383 4.017 3.338 4.625 5.806 1.311 5.27-2.265 10.957-2.42 11.195a1.158 1.158 0 01-.989.537zM148.53 17.109c-.167 0-.346-.036-.501-.107a1.185 1.185 0 01-.572-1.586c2.491-5.317 9.631-4.912 9.929-4.888a1.187 1.187 0 011.109 1.264 1.18 1.18 0 01-1.264 1.108c-.047 0-5.817-.31-7.617 3.53-.202.417-.631.679-1.084.679z" fill="#080717"/><path d="M149.37 14.7a1.197 1.197 0 01-1.121-1.598c.644-1.824-.488-2.658-.715-2.801a1.195 1.195 0 01-.381-1.634 1.182 1.182 0 011.621-.405c1.061.632 2.789 2.623 1.74 5.64a1.23 1.23 0 01-1.144.798z" fill="#080717"/><path d="M38.932 150.8l32.304-42.492c7.891-10.373 22.756-12.244 32.972-4.149l15.091 11.97 6.58-6.987h.298c12.492 0 23.245 8.823 25.7 21.068l20.849 107.17h-146.3l12.504-86.581z" fill="#9E9E9E"/><path d="M164.67 192.85h3.492a9.63 9.63 0 009.048-6.33c1.013-2.79-1.049-5.735-4.017-5.735h-29.36l20.837 12.065z" fill="#fff"/><path d="M168.17 194.04h-3.492a1.197 1.197 0 01-1.193-1.193c0-.655.537-1.192 1.193-1.192h3.492c3.529 0 6.711-2.229 7.927-5.556a3.037 3.037 0 00-.369-2.813 3.034 3.034 0 00-2.516-1.312h-29.359c-.656 0-1.192-.536-1.192-1.192s.536-1.192 1.192-1.192h29.359a5.447 5.447 0 015.126 7.32c-1.561 4.268-5.638 7.13-10.168 7.13z" fill="#080717"/><path d="M38.932 150.8L7.176 192.648c-16.069 21.174 2.754 50.944 28.776 45.508l99.487-20.817 12.004 8.405a13.295 13.295 0 0013.231 1.169l3.29-1.526a12.346 12.346 0 0013.315.238l2.766-1.705-3.195-3.946 1.073-.119a9.479 9.479 0 008.07-6.832L160.4 187.438a23.185 23.185 0 00-19.525-6.582l-71.94 9.789 19.013-20.841c-.036.012-12.099-19.004-49.016-19.004z" fill="#fff"/><path d="M29.718 240c-10.096 0-19.299-5.031-24.949-13.973-6.842-10.826-6.294-23.893 1.454-34.098l31.756-41.848c.227-.299.572-.477.954-.477 37.144 0 49.482 18.766 49.994 19.564.286.454.238 1.05-.131 1.443L72 189.031l68.685-9.335c7.498-1.025 15.175 1.562 20.539 6.927l25.593 25.586c.31.31.417.751.298 1.168-1.097 3.839-4.184 6.701-8.022 7.511l1.859 2.301a1.187 1.187 0 01-.298 1.765l-2.765 1.705c-4.292 2.647-9.727 2.659-14.031.095l-2.694 1.252a14.52 14.52 0 01-14.411-1.276l-11.575-8.107-98.975 20.709a32.75 32.75 0 01-6.485.668zm9.799-88L8.117 193.371c-7.128 9.395-7.64 21.413-1.335 31.38 6.294 9.967 17.38 14.653 28.92 12.233l99.487-20.817c.322-.072.656 0 .93.191l12.004 8.405a12.139 12.139 0 0012.04 1.061l3.29-1.526a1.17 1.17 0 011.167.096 11.174 11.174 0 0012.028.214l1.61-.989-2.337-2.886a1.19 1.19 0 01-.179-1.204c.167-.405.536-.679.966-.727l1.072-.119a8.26 8.26 0 006.843-5.318l-25.069-25.061c-4.828-4.829-11.753-7.165-18.524-6.247l-71.94 9.788c-.5.072-.977-.179-1.216-.632a1.175 1.175 0 01.18-1.359l18.356-20.125c-1.144-1.479-4.232-5.008-9.882-8.489-6.782-4.173-18.655-9.145-37.013-9.24z" fill="#080717"/><path d="M145.3 208.93l18.644 16.453L145.3 208.93z" fill="#fff"/><path d="M163.94 226.58c-.274 0-.56-.095-.786-.298l-18.644-16.453a1.202 1.202 0 01-.107-1.681 1.2 1.2 0 011.681-.107l18.643 16.453a1.2 1.2 0 01.107 1.681c-.238.274-.56.405-.894.405z" fill="#080717"/><path d="M151.88 197.59l24.127 22.104-24.127-22.104z" fill="#fff"/><path d="M176 220.9c-.286 0-.572-.107-.799-.31l-24.127-22.104a1.19 1.19 0 01-.071-1.681 1.178 1.178 0 011.681-.072l24.127 22.104a1.18 1.18 0 01.071 1.682 1.22 1.22 0 01-.882.381z" fill="#080717"/><path d="M40.386 195.04l28.513-4.387-28.513 4.387z" fill="#fff"/><path d="M40.386 196.23a1.2 1.2 0 01-1.18-1.013 1.189 1.189 0 011.001-1.359l28.514-4.388a1.188 1.188 0 011.36 1.002 1.19 1.19 0 01-1.002 1.359l-28.514 4.387c-.06 0-.12.012-.179.012zM87.913 171c-.298 0-.596-.107-.823-.333a1.188 1.188 0 01-.035-1.681l19.478-20.388a1.188 1.188 0 111.717 1.645l-19.478 20.388c-.239.25-.549.369-.858.369zM257.88 237.39H117.03v-2.587a8.522 8.522 0 018.523-8.524h132.33v11.111z" fill="#080717"/><path d="M203.23 237.39H331.3l28.144-85.079c2.718-8.215-3.397-16.692-12.051-16.692h-101.32a12.702 12.702 0 00-12.052 8.716l-30.79 93.055z" fill="#080717"/><path d="M289.89 197.52a9.025 9.025 0 009.024-9.025 9.025 9.025 0 10-18.048 0 9.025 9.025 0 009.024 9.025z" fill="#fff"/><path d="M289.89 198.7c-5.627 0-10.216-4.578-10.216-10.217 0-5.628 4.577-10.218 10.216-10.218 5.626 0 10.216 4.578 10.216 10.218 0 5.639-4.59 10.217-10.216 10.217zm0-18.038c-4.315 0-7.832 3.517-7.832 7.833s3.517 7.833 7.832 7.833 7.831-3.517 7.831-7.833a7.837 7.837 0 00-7.831-7.833z" fill="#080717"/><path d="M280.07 13.484c-16.414-16.417-43.008-16.417-59.422 0-13.423 13.425-15.855 33.681-7.32 49.598l-6.282 23.44 23.436-6.283c15.913 8.548 36.154 6.116 49.588-7.32 16.415-16.418 16.415-43.029 0-59.435z" fill="#fff"/><path d="M241.94 37.54a8.088 8.088 0 018.994-5.286 8.087 8.087 0 016.718 7.981c0 5.39-8.085 8.085-8.085 8.085" stroke="#000" stroke-linecap="round" stroke-linejoin="round" stroke-width="4"/><path d="M249.64 54.853h.028" stroke="#000" stroke-linecap="round" stroke-linejoin="round" stroke-width="5"/><path d="M207.06 87.702c-.31 0-.62-.12-.846-.346a1.211 1.211 0 01-.31-1.156l6.151-22.987c-8.666-16.584-5.519-37.318 7.748-50.575 16.843-16.847 44.26-16.847 61.104 0 16.843 16.846 16.843 44.268 0 61.115-13.256 13.258-33.985 16.417-50.566 7.75l-22.983 6.163a1.27 1.27 0 01-.298.036zm43.295-85.318c-10.454 0-20.908 3.982-28.871 11.946-12.636 12.638-15.556 32.453-7.105 48.191.143.262.179.584.107.87l-5.745 21.45 21.433-5.747c.286-.084.608-.048.87.095 15.735 8.453 35.546 5.532 48.182-7.106 15.914-15.917 15.914-41.824 0-57.753-7.951-7.964-18.405-11.946-28.871-11.946z" fill="#080717"/></svg>